<svg xmlns="http://www.w3.org/2000/svg" xmlns:xlink="http://www.w3.org/1999/xlink" width="500" zoomAndPan="magnify" viewBox="0 0 375 374.999991" height="500" preserveAspectRatio="xMidYMid meet" version="1.0"><defs><clipPath id="7ef7c8ccd4"><path d="M 91 64.914062 L 284 64.914062 L 284 310.164062 L 91 310.164062 Z M 91 64.914062 " clip-rule="nonzero"/></clipPath></defs><path fill="#800080" d="M 261.6875 93.339844 C 297.242188 207.140625 197.054688 285.058594 187.839844 291.960938 L 187.496094 292.210938 C 187.402344 292.152344 187.304688 292.074219 187.152344 291.960938 C 177.917969 285.058594 77.730469 207.140625 113.304688 93.339844 C 113.304688 93.339844 165.988281 78.582031 187.496094 79.480469 C 209.003906 78.601562 261.6875 93.339844 261.6875 93.339844 Z M 261.6875 93.339844 " fill-opacity="1" fill-rule="nonzero"/><g clip-path="url(#7ef7c8ccd4)"><path fill="#800080" d="M 275.566406 89.019531 L 273.214844 81.488281 L 265.625 79.347656 C 260.328125 77.875 213.378906 64.914062 189.464844 64.914062 C 188.796875 64.914062 188.128906 64.933594 187.496094 64.953125 C 186.847656 64.933594 186.195312 64.914062 185.507812 64.914062 C 161.632812 64.914062 114.664062 77.875 109.367188 79.347656 L 101.777344 81.488281 L 99.425781 89.019531 C 90.558594 117.410156 88.816406 146.066406 94.265625 174.203125 C 98.644531 196.855469 107.683594 219.148438 121.144531 240.5 C 144.101562 276.972656 172.929688 299.472656 178.472656 303.601562 L 178.53125 303.660156 C 178.53125 303.660156 179.085938 304.0625 179.21875 304.15625 L 187.765625 310.082031 L 196.519531 303.601562 C 202.0625 299.472656 230.890625 276.972656 253.847656 240.5 C 267.289062 219.148438 276.332031 196.835938 280.726562 174.203125 C 286.15625 146.066406 284.433594 117.410156 275.566406 89.019531 Z M 273.578125 172.789062 C 269.351562 194.5625 260.65625 216.03125 247.710938 236.617188 C 225.421875 272.003906 197.53125 293.777344 192.179688 297.773438 L 187.628906 301.136719 L 183.367188 298.175781 C 183.253906 298.117188 182.8125 297.773438 182.8125 297.773438 C 177.460938 293.757812 149.570312 272.003906 127.28125 236.617188 C 114.320312 216.03125 105.640625 194.5625 101.414062 172.789062 C 96.175781 145.875 97.859375 118.402344 106.367188 91.179688 L 107.550781 87.414062 L 111.355469 86.34375 C 113.402344 85.769531 162.1875 72.199219 185.507812 72.199219 C 186.195312 72.199219 186.867188 72.199219 187.496094 72.238281 C 188.128906 72.199219 188.796875 72.199219 189.464844 72.199219 C 212.789062 72.199219 261.589844 85.769531 263.636719 86.34375 L 267.441406 87.414062 L 268.625 91.179688 C 277.132812 118.402344 278.796875 145.875 273.578125 172.789062 Z M 273.578125 172.789062 " fill-opacity="1" fill-rule="nonzero"/></g><path fill="#ffffff" d="M 187.839844 291.960938 L 187.496094 292.210938 C 187.402344 292.152344 187.304688 292.074219 187.152344 291.960938 C 177.917969 285.058594 77.730469 207.140625 113.304688 93.339844 C 113.304688 93.339844 165.988281 78.582031 187.496094 79.480469 C 209.003906 78.601562 261.6875 93.339844 261.6875 93.339844 C 297.242188 207.140625 197.054688 285.058594 187.839844 291.960938 Z M 187.839844 291.960938 " fill-opacity="1" fill-rule="nonzero"/><path fill="#800080" d="M 187.839844 291.960938 L 187.496094 292.210938 C 187.402344 292.152344 187.304688 292.074219 187.152344 291.960938 C 177.917969 285.058594 77.730469 207.140625 113.304688 93.339844 C 113.304688 93.339844 165.988281 78.582031 187.496094 79.480469 C 209.003906 78.601562 261.6875 93.339844 261.6875 93.339844 C 297.242188 207.140625 197.054688 285.058594 187.839844 291.960938 Z M 187.839844 291.960938 " fill-opacity="1" fill-rule="nonzero"/></svg>